# xmcd
#
# Track frame offsets:
# 150
# 11588
# 26730
# 40235
# 60646
# 76886
# 86786
# 100939
# 114023
# 128599
# 147156
# 158289
# 170739
# 187035
#
# Disc length: 2647 seconds
#
#
# Revision: 0
# Processed by: cddbd v1.5.2PL0 Copyright (c) Steve Scherf et al.
# Submitted via: Nero 7, 11, 10, 0 
#
DISCID=a90a550e
DTITLE=Jeff Turmes - Every Day's My Lucky Day
DYEAR=2002
DGENRE=Blues
TTITLE0=Great Big Slob
TTITLE1=Don't Count Me Out
TTITLE2=Everybody Hates My Dog
TTITLE3=Can't Save A Dollar
TTITLE4=More I Keep On Losin'
TTITLE5=You Look Like A Clown
TTITLE6=World Keeps Getting Younger
TTITLE7=Me And My Big Mouth Again
TTITLE8=Worry Me to Death
TTITLE9=Shipwreck
TTITLE10=How About It?
TTITLE11=I'm Tired
TTITLE12=I Know It's Wrong
TTITLE13=Every Day's My Lucky Day
EXTD=
EXTT0=Great Big Slob
EXTT1=Don't Count Me Out
EXTT2=Everybody Hates My Dog
EXTT3=Can't Save A Dollar
EXTT4=More I Keep On Losin'
EXTT5=You Look Like A Clown
EXTT6=World Keeps Getting Younger
EXTT7=Me And My Big Mouth Again
EXTT8=Worry Me to Death
EXTT9=Shipwreck
EXTT10=How About It?
EXTT11=I'm Tired
EXTT12=I Know It's Wrong
EXTT13=Every Day's My Lucky Day
PLAYORDER=
